<svg width="328" height="105" viewBox="0 0 328 105" fill="none" xmlns="http://www.w3.org/2000/svg">
<path d="M31.9346 84.5868C31.1668 84.0322 30.5946 83.2497 30.2998 82.3511C30.005 81.4526 30.0028 80.4841 30.2934 79.5842L31.2323 75.7107C31.3999 75.0298 31.7092 74.3916 32.1401 73.8376C32.571 73.2836 33.1139 72.8261 33.7335 72.4947L36.8153 70.8796C38.7165 69.8941 40.2345 68.3056 41.1299 66.3645C42.0253 64.4235 42.2472 62.2404 41.7605 60.1597L41.7175 59.9667C41.147 57.6366 39.7253 55.6026 37.7304 54.2624C35.7356 52.9222 33.3112 52.3722 30.9313 52.72L27.484 53.2131C26.7831 53.3135 26.0689 53.2647 25.3883 53.0701C24.7076 52.8755 24.076 52.5394 23.535 52.084L20.489 49.504C19.733 48.94 19.1717 48.1555 18.8828 47.2591C18.5938 46.3628 18.5916 45.399 18.8765 44.5014C19.525 42.5127 19.5064 40.3674 18.8236 38.3902C18.1407 36.4129 16.8307 34.7111 15.0917 33.5422C13.3527 32.3733 11.2793 31.8009 9.18506 31.9116C7.09081 32.0222 5.08965 32.8098 3.48423 34.1554C1.87882 35.5009 0.756468 37.3312 0.286937 39.3693C-0.182593 41.4075 0.0262335 43.5427 0.881833 45.452C1.73743 47.3612 3.19327 48.9408 5.02915 49.9517C6.86503 50.9625 8.9811 51.3498 11.0573 51.0549C11.3942 51.0048 11.7238 50.9334 12.0535 50.8547L12.9494 50.6832C13.6935 50.5366 14.4612 50.5601 15.1948 50.752C15.9285 50.9438 16.6089 51.2991 17.1851 51.791L21.3276 55.3643C21.9607 55.9171 22.4441 56.6199 22.7335 57.408C23.0228 58.196 23.1086 59.044 22.9831 59.8738L22.8828 60.5027L22.7968 61.053V61.103C22.6621 62.2501 22.735 63.412 23.0118 64.5334C23.0118 64.5977 23.0118 64.662 23.062 64.7192V64.7907C23.4592 66.3116 24.2274 67.7109 25.298 68.8642C25.4271 69 25.5561 69.1287 25.6922 69.2573L26.1437 69.7075C26.7398 70.3102 27.1728 71.0537 27.4022 71.8687C27.6316 72.6836 27.6499 73.5432 27.4553 74.3671L26.1939 79.6628C26.0205 80.3989 25.6804 81.0856 25.1996 81.6703C24.7188 82.255 24.1102 82.7222 23.4203 83.036L22.6463 83.3933C22.3303 83.5163 22.0217 83.6571 21.7217 83.815C20.3119 84.557 19.1099 85.6377 18.2243 86.9595C16.7607 89.052 16.1906 91.6386 16.6395 94.1502C17.0884 96.6619 18.5196 98.8928 20.618 100.352C22.7165 101.812 25.3105 102.38 27.8292 101.933C30.348 101.485 32.5853 100.058 34.0489 97.9653C34.9151 96.7813 35.4963 95.4143 35.7475 93.9703C35.8131 93.6447 35.8586 93.3153 35.8836 92.9841L35.984 92.1408C35.9267 90.6581 35.5324 89.2078 34.831 87.8992C34.1295 86.5906 33.1391 85.458 31.9346 84.5868Z" fill="#FF9533"/>
<path d="M105.642 38.5693C105.134 37.0177 104.239 35.6203 103.041 34.5082C101.842 33.3962 100.381 32.6059 98.7923 32.2115C97.2039 31.8172 95.5412 31.8317 93.96 32.2537C92.3788 32.6758 90.9311 33.4915 89.7527 34.6243C89.5014 34.8498 89.2622 35.0884 89.036 35.339L88.4555 35.9679C87.9416 36.5227 87.3084 36.9543 86.6034 37.2303C85.8984 37.5064 85.1399 37.6196 84.3847 37.5616L78.9378 37.1185C78.091 37.0486 77.2758 36.7654 76.5688 36.2954C75.8618 35.8254 75.2861 35.184 74.8956 34.4314L74.609 33.8668C74.523 33.6953 74.4441 33.5309 74.351 33.3737V33.3236C73.7852 32.3139 73.0396 31.4154 72.1507 30.6722L72.0074 30.5579L71.9429 30.5007C70.7233 29.5088 69.2791 28.8292 67.7359 28.5211H67.6785L67.1267 28.4282L66.4888 28.3782C65.6511 28.2415 64.862 27.895 64.1951 27.3713C63.5283 26.8476 63.0056 26.1638 62.676 25.3837L60.5689 20.3811C60.2786 19.6823 60.151 18.9269 60.1957 18.1718C60.2404 17.4167 60.4562 16.6816 60.8269 16.0217L61.2498 15.307C61.4313 15.0211 61.5962 14.7281 61.7443 14.428C62.3933 13.1142 62.7293 11.6688 62.7262 10.2043C62.6577 7.69756 61.6109 5.31641 59.8086 3.56752C58.0063 1.81864 55.5907 0.840088 53.0759 0.840088C50.5611 0.840088 48.1455 1.81864 46.3432 3.56752C44.5409 5.31641 43.4941 7.69756 43.4256 10.2043C43.4225 11.6688 43.7585 13.1142 44.4075 14.428C44.5604 14.7281 44.7252 15.0211 44.902 15.307L45.3248 16.0217C45.6956 16.6816 45.9114 17.4167 45.9561 18.1718C46.0008 18.9269 45.8731 19.6823 45.5828 20.3811L43.4758 25.3837C43.1487 26.1601 42.6304 26.8416 41.9689 27.3651C41.3074 27.8885 40.5241 28.237 39.6916 28.3782L39.0681 28.4782L38.5091 28.5711H38.4589C37.3194 28.7949 36.2309 29.2261 35.2481 29.8432L35.1048 29.9361C35.076 29.9485 35.0494 29.9654 35.0259 29.9862C33.6967 30.8362 32.6006 32.0028 31.8366 33.3808V33.4308C31.7506 33.5881 31.6646 33.7596 31.5858 33.924C27.6726 42.2998 36.2371 46.9451 37.3194 47.231C38.6412 47.6292 40.0308 47.7536 41.4026 47.5962C42.7745 47.4389 44.0995 47.0033 45.2962 46.3162L45.4753 46.2019C47.5174 44.9383 49.0116 42.9588 49.6641 40.6524C50.3166 38.346 50.0802 35.8796 49.0015 33.7382L47.4391 30.5936C47.1267 29.9598 46.9524 29.2672 46.9277 28.5614C46.903 27.8556 47.0284 27.1526 47.2957 26.4986L48.7865 22.811C49.088 21.9196 49.6624 21.1451 50.4287 20.5964C51.195 20.0478 52.1146 19.7526 53.058 19.7526C54.0013 19.7526 54.9209 20.0478 55.6872 20.5964C56.4535 21.1451 57.0279 21.9196 57.3295 22.811L58.8489 26.4986C59.1173 27.1521 59.244 27.8549 59.2205 28.5607C59.197 29.2665 59.024 29.9593 58.7127 30.5936L57.1718 33.7096C56.2116 35.6265 55.9228 37.8088 56.3514 39.9085C56.7801 42.0082 57.9015 43.9042 59.5369 45.2942L59.6874 45.43C60.9399 46.4829 62.4411 47.1995 64.0489 47.5122C65.6568 47.8248 67.318 47.7231 68.8754 47.2167C70.3036 46.7623 71.6031 45.976 72.6667 44.9226L75.168 42.4999C75.6721 42.0003 76.2777 41.6142 76.9441 41.3676C77.6104 41.1211 78.3221 41.0198 79.031 41.0706L83.0158 41.3707C83.9586 41.3831 84.8743 41.6876 85.6358 42.242C86.3973 42.7965 86.9669 43.5735 87.2658 44.4652C87.875 46.3376 89.4159 49.9324 95.0563 51.0115C96.6777 51.2402 98.3308 51.0538 99.8602 50.4699C101.389 49.8859 102.745 48.9237 103.798 47.6736C104.852 46.4236 105.569 44.9268 105.883 43.3241C106.197 41.7214 106.097 40.0655 105.592 38.5121L105.642 38.5693Z" fill="#FF9533"/>
<path d="M70.8086 53.0915C69.5015 53.5407 68.3015 54.2543 67.284 55.1878C66.2665 56.1212 65.4535 57.2542 64.8959 58.5158C64.8959 58.5801 64.8385 58.6444 64.817 58.7088C63.9189 60.9294 63.8824 63.404 64.7145 65.6502C65.5466 67.8963 67.1877 69.7529 69.3179 70.858L72.4068 72.4732C73.032 72.8037 73.58 73.2624 74.0148 73.8192C74.4496 74.3759 74.7613 75.018 74.9296 75.7034L75.8756 79.5769C76.1649 80.4755 76.1623 81.4422 75.8681 82.3392C75.5739 83.2363 75.0032 84.0177 74.2374 84.5723C73.4715 85.1268 72.5496 85.426 71.6032 85.4274C70.6568 85.4287 69.7341 85.132 68.9667 84.5795L65.5624 82.4927C64.9588 82.1254 64.4399 81.635 64.0397 81.0537C63.6395 80.4723 63.3671 79.8132 63.2403 79.1195L62.6526 75.6963C62.3035 73.5832 61.2562 71.6472 59.6772 70.1956C58.0982 68.7441 56.078 67.8604 53.9376 67.6849H53.7298C51.3315 67.5118 48.9548 68.2381 47.0656 69.7214C45.1764 71.2047 43.9108 73.3381 43.5169 75.7034C42.1552 83.8506 49.5013 86.502 52.3466 86.8665H52.6117C54.1839 86.9561 55.7541 86.6592 57.1842 86.0017H57.2344L57.7361 85.7516L58.3023 85.4657C59.0607 85.0847 59.9037 84.9018 60.7523 84.9343C61.601 84.9668 62.4274 85.2136 63.1543 85.6515L67.82 88.5102C68.4681 88.9024 69.0176 89.4374 69.4263 90.0741C69.835 90.7108 70.0921 91.4324 70.1779 92.1835L70.2783 93.0269C70.3007 93.3647 70.3414 93.701 70.4001 94.0345C70.6804 95.6453 71.3675 97.1583 72.3966 98.431C73.4257 99.7036 74.7629 100.694 76.282 101.309C77.8012 101.923 79.4524 102.142 81.0798 101.944C82.7072 101.746 84.2574 101.139 85.584 100.178C86.9106 99.2175 87.9701 97.9359 88.6625 96.454C89.3549 94.9721 89.6574 93.3388 89.5415 91.7081C89.4256 90.0773 88.8952 88.5029 88.0002 87.1332C87.1051 85.7635 85.875 84.6436 84.4258 83.8792C84.1248 83.7219 83.8166 83.5862 83.5013 83.4575L82.7272 83.1002C82.0382 82.7871 81.43 82.321 80.9493 81.7376C80.4686 81.1542 80.128 80.4689 79.9536 79.7341L78.6922 74.4313C78.4977 73.6074 78.516 72.7478 78.7453 71.9329C78.9747 71.1179 79.4077 70.3743 80.0038 69.7717L80.4553 69.3215C80.5915 69.1929 80.7205 69.0642 80.8495 68.9284V68.8856C81.6389 68.0395 82.2656 67.056 82.6986 65.984L82.7631 65.8197V65.741C83.3323 64.2776 83.5341 62.6976 83.3508 61.1386V61.0814C82.075 51.7694 72.8727 52.3268 70.8086 53.0915Z" fill="#FF9533"/>
<path d="M151.716 94.2839V86.687H142.399C140.276 86.6401 138.201 86.0441 136.379 84.9576C134.372 83.7784 130.817 79.8692 129.721 78.3184C128.64 76.64 128.1 74.6726 128.173 72.6797V45.2938C128.09 43.2751 128.631 41.2797 129.721 39.5765C130.817 38.1472 134.372 34.2094 136.379 33.0231C138.203 31.942 140.277 31.3488 142.399 31.3007H151.716V23.9254H161.843V31.2864H170.938C173.058 31.3458 175.129 31.9382 176.958 33.0088C178.965 34.1951 182.434 38.1043 183.623 39.5622C184.71 41.2669 185.25 43.2612 185.171 45.2795V72.6654C185.24 74.658 184.701 76.6244 183.623 78.3041C182.434 79.8549 178.965 83.7641 176.958 84.9433C175.131 86.0192 173.059 86.6143 170.938 86.6728H161.843V94.2696L151.716 94.2839ZM142.621 76.0457H151.716V41.9278H142.714C141.431 42.9155 140.294 44.0802 139.339 45.3867V72.6797C140.267 73.9515 141.372 75.0849 142.621 76.0457ZM174.041 45.3153C173.164 44.001 172.052 42.8598 170.759 41.9492H161.843V76.0672H170.665C171.904 75.0639 173.035 73.9359 174.041 72.7011V45.3153Z" fill="black"/>
<path d="M233.411 47.659C232.412 45.3112 230.726 43.3186 228.573 41.9418H212.362C210.99 42.9667 209.781 44.1932 208.778 45.5794V72.6937C209.698 74.075 210.924 75.2267 212.362 76.0597H228.752C230.717 74.6329 232.313 72.7616 233.411 70.5997L243.81 73.1511C243.056 75.2264 242.011 77.185 240.707 78.9684C238.514 82.0629 234.257 86.7011 228.666 86.7011H211.903C209.782 86.6417 207.711 86.0466 205.883 84.9716C203.969 83.7924 200.5 80.1548 199.225 78.4253C198.195 76.7246 197.657 74.7732 197.669 72.7866V45.2006C197.587 43.2055 198.131 41.2346 199.225 39.5619C200.314 38.1326 203.876 34.2877 205.976 33.0085C207.784 31.9679 209.817 31.3771 211.903 31.2861H228.674C234.235 31.2861 238.435 35.9243 240.621 38.9259C241.916 40.7074 242.96 42.6575 243.724 44.7218L233.411 47.659Z" fill="black"/>
<path d="M289.034 86.2369V42.2923H265.978V86.2369H254.847V34.7169C254.851 33.9125 255.173 33.1421 255.744 32.5733C256.314 32.0045 257.087 31.6833 257.893 31.6796H297.118C297.925 31.6833 298.697 32.0045 299.268 32.5733C299.838 33.1421 300.16 33.9125 300.164 34.7169V86.2726L289.034 86.2369Z" fill="black"/>
</svg>
